<svg xmlns="http://www.w3.org/2000/svg" viewBox="0 0 500 500"><title>Yoast_Fact_Check_WPicon</title><rect x="-7" y="-5.33" width="510.67" height="510.67" fill="#5d237a"/><circle cx="180.15" cy="387.71" r="76.35" transform="translate(-221.39 240.94) rotate(-45)" fill="#77b227"/><path d="M112.91,423.88l134.48-72.33a76.35,76.35,0,1,0-134.48,72.33Z" fill="#9fda4f"/><path d="M283.4,332.25h0l.07.12s0,.07.05.1h0a49.89,49.89,0,1,0,87.87-47.27h0l0-.05,0,0h0a49.89,49.89,0,0,0-87.93,47.15Z" fill="#f49a00"/><path d="M283.51,332.47l87.88-47.27a49.89,49.89,0,0,0-87.88,47.27Z" fill="#fec228"/><path d="M412.17,263.2h0v0h0a29.94,29.94,0,1,0,12.19-40.55A29.95,29.95,0,0,0,412.19,263.24Z" fill="#ed261f"/><path d="M412.19,263.24l52.74-28.37a29.94,29.94,0,0,0-52.74,28.37Z" fill="#ff4e47"/><line x1="81" y1="152" x2="453" y2="152" fill="none" stroke="#fcc329" stroke-linecap="round" stroke-miterlimit="10" stroke-width="33"/><path d="M137,166A137,137,0,0,1,0,303V29A137,137,0,0,1,137,166Z" fill="#fcc329"/><circle cx="70" cy="119" r="21" fill="#5d237a"/></svg>