<?xml version="1.0" encoding="utf-8"?>
<!-- Generator: Adobe Illustrator 22.0.1, SVG Export Plug-In . SVG Version: 6.00 Build 0)  -->
<svg version="1.1" id="Layer_1" xmlns="http://www.w3.org/2000/svg" xmlns:xlink="http://www.w3.org/1999/xlink" x="0px" y="0px"
	 viewBox="0 0 500 500" style="enable-background:new 0 0 500 500;" xml:space="preserve">
<title>Research_plugin</title>
<path style="fill:#0E5A66;" d="M500,100c0-54.2-39.6-100-90-100H90C40.3,0,0,44.8,0,100v300c0,55.2,40.3,100,90,100h410V100z"/>
<path style="display:none;fill:#1BB4CC;" d="M500,335l-47.9-93.5L431.4,93.6l59-52.1c-0.6-0.8-2.2-0.7-2.9-1.5l-58.1,51.3L301,49
	L264,0h-4l38.3,50.5l-56.8,102l-104.8-35.1l-1.8,2.7l105.6,35.4l-2,126.9l-107.6,16.4l-51.2-48.6l-2.4,1.8l50.9,48.4l-71.8,78.2
	L0,393c0.1,0.5-0.2,3.1,0,4l58.4-15.7L203.9,431L169,500h4l33.5-68.8l151.8-43.7L326,500h4l33.4-113.8l0,0l87-141.1l49.5,96.6V335z
	 M300.8,52.2l124,40.8l-179.5,58.9L300.8,52.2z M428.9,97.9l20,142.6l-97.4,4.9L428.9,97.9z M348.4,244.7l-103.3-89.5l181.5-59.6
	L348.4,244.7z M345.9,246.5l-104.2,35.1l2-123.7L345.9,246.5z M347.6,249.1l12.7,132.7l-117.1-97.5L347.6,249.1z M202.1,427.5
	L60.5,378.8l69.6-75.9L202.1,427.5z M132.9,301.6L238,285.6l-33.1,140.7L132.9,301.6z M240.9,286.4l117.6,98l-150.9,43.5
	L240.9,286.4z M350.6,248.5l97.2-4.9l-84.6,137.1L350.6,248.5z"/>
<g>
	<path style="fill:#1BB4CC;" d="M0,397v-3.1C0,394.9-0.1,396.4,0,397z"/>
	<path style="fill:#1BB4CC;" d="M431.4,93.6l54.2-47.9c-0.5-0.9-1-1.8-1.6-2.6l-54.6,48.2L301,49L264,0h-4l38.3,50.5l-56.8,102
		l-104.8-35.1l-1.8,2.7l105.6,35.4l-2,126.9l-107.6,16.4l-51.2-48.6l-2.4,1.8l50.9,48.4l-71.8,78.2L0,393c0,0.1,0,0.5,0,0.9v3.1
		l58.4-15.7L203.9,431L169,500h4l33.5-68.8l151.8-43.7L326,500h4l33.4-113.8l87-141.1l49.5,96.6V335l-47.9-93.5L431.4,93.6z
		 M300.8,52.2l124,40.8l-179.5,58.9L300.8,52.2z M426.6,95.6l-78.2,149.1l-103.3-89.5L426.6,95.6z M243.6,157.8l102.3,88.7
		l-104.2,35.1L243.6,157.8z M60.5,378.8l69.6-75.9l72,124.6L60.5,378.8z M204.9,426.3l-72-124.6L238,285.6L204.9,426.3z
		 M207.6,427.9l33.3-141.5l117.6,98L207.6,427.9z M243.2,284.3l104.4-35.1l12.7,132.7L243.2,284.3z M363.2,380.7l-12.6-132.2
		l97.2-4.9L363.2,380.7z M351.5,245.4l77.4-147.5l20,142.6L351.5,245.4z"/>
</g>
<polygon style="fill:#1BB4CC;" points="500,454 500,458 365.1,385.9 365.3,381.9 "/>
<path style="fill:#9FDA4F;" d="M466.3,230c6.6,8.7,5,21.2-3.8,27.8c-8.7,6.6-21.2,5-27.8-3.8c-2.6-3.4-4.1-7.7-4.1-12
	c0-1.2,0.1-2.4,0.3-3.5c0.2-1.2,0.6-2.4,1-3.6c2.5-6.5,8.2-11.2,15.1-12.4c1.1-0.2,2.3-0.3,3.4-0.3C456.7,222.2,462.6,225,466.3,230
	z"/>
<path style="fill:#9FDA4F;" d="M261.7,154.8c0,9.8-6.4,19.6-19.6,19.6c-11,0-19.8-8.9-19.8-19.8s8.9-19.8,19.8-19.8
	C255.1,134.7,261.7,144.8,261.7,154.8z"/>
<path style="fill:#9FDA4F;" d="M320,50.2c0,10.5-8.8,20.1-19.8,20.1c-6.3,0-20-4.8-20-19.9c0.2-11,9.3-19.7,20.3-19.5
	C311.1,31.1,319.7,39.6,320,50.2z"/>
<path style="fill:#FEC228;" d="M259.9,283.7c0,11-8.9,19.8-19.8,19.8s-19.8-8.9-19.8-19.8l0,0c0-13.2,11.3-19.8,19.8-19.8
	C255.8,263.9,259.9,278.4,259.9,283.7z"/>
<path style="fill:#FEC228;" d="M362.4,365.6c13.2,0,19.6,11.6,19.6,19.7c0,11-8.8,19.9-19.8,19.9c-11,0-19.9-8.8-19.9-19.8l0,0
	C342.3,373.2,352.2,365.6,362.4,365.6z"/>
<path style="fill:#FF4E47;" d="M150.1,300.5L150.1,300.5c0,10.9-8.9,19.8-19.8,19.8c-8.4,0-19.8-6.5-19.8-19.8
	c0-11,8.9-19.8,19.8-19.8C141.2,280.6,150.1,289.5,150.1,300.5L150.1,300.5L150.1,300.5z"/>
<path style="fill:#FF4E47;" d="M205.6,409.9c11,0.1,19.8,9,19.7,19.9c-0.1,11-9,19.8-19.9,19.7c-10.9,0-19.7-8.9-19.7-19.8
	C185.7,418.9,194.6,410,205.6,409.9z"/>
<path style="fill:#FF4E47;" d="M57.9,360c11.8,0,19.5,10,19.5,19.8c0,11-8.8,19.9-19.8,19.9s-19.9-8.8-19.9-19.8
	C37.7,367.5,47.8,360,57.9,360z"/>
<path style="fill:#9FDA4F;" d="M449.6,93c0,7.2-5.5,19.8-19.9,19.8c-11,0-19.8-8.9-19.8-19.9c0-11,8.9-19.8,19.9-19.8
	C440.7,73.2,449.6,82.1,449.6,93z"/>
<path style="fill:#FEC228;" d="M368.7,247.1c0,12.2-9.9,19.8-20.1,19.8c-13.2,0-19.6-11.6-19.6-19.7c0-11,8.8-19.9,19.8-19.9
	C359.8,227.3,368.7,236.1,368.7,247.1L368.7,247.1L368.7,247.1z"/>
<path id="Y" style="fill:#FFFFFF;" d="M49.3,244.4v22.9c13.4-0.5,24-4.8,33.1-13.2c0.5-0.5,1-1,1.5-1.5c9.7-9.7,18-24.9,26.2-47.7
	l60.6-162.5h-29.3L92.6,178l-24.3-76.1H41.4l35.7,91.6c0.9,2.3,1.6,4.8,2,7.2c1.2,6.8,0.5,13.8-2,20.2
	C73.4,230.2,67,241.1,49.3,244.4z"/>
</svg>
