<svg xmlns="http://www.w3.org/2000/svg" viewBox="0 0 500 450"><title>Yoast_SEO_Research</title><path d="M500,90c0-48.79-39.55-90-90-90H90A90,90,0,0,0,0,90V360a90.06,90.06,0,0,0,90,90H500Z" fill="#0e5a66"/><path d="M500,320.06l-47.93-93.51L431.37,78.64,481,34.8c-.62-.8-1.25-1.6-1.9-2.39L429.4,76.32,301,34,275,0h-3.84l27.11,35.46L241.49,137.57l-97.28-32.46-1.32,2.75,97.69,32.65-2,126.89L131,283.84,86.49,241.75,84,243.5l44.32,41.86L56.53,363.57,1.77,377.83c.08.48.41,2,.63,2.88l56-14.41L203.86,396,187,450h3.21l16.17-53.79,151.82-23.66L289,450h3.45l70.92-78.81,0,0,87-141.09L500,326.75ZM300.81,37.17,424.86,78,245.35,136.9ZM428.89,83l20,142.63-97.36,4.86ZM348.44,229.68,245.16,140.17,426.65,80.66Zm-2.56,1.82L241.65,266.57l1.95-123.71Zm1.69,2.66,12.69,132.69L243.17,269.28ZM202.12,392.56,60.51,363.85l69.59-75.92ZM132.9,286.63,238,270.57,204.92,391.24Zm108-15.23,117.62,98L207.62,392.94Zm109.63-37.86,97.2-4.85L363.21,365.74Z" fill="#1bb4cc"/><path d="M466.36,215a19.84,19.84,0,0,1-24,30.08,20,20,0,0,1-7.5-6,19.71,19.71,0,0,1-4.08-12,19.45,19.45,0,0,1,.32-3.52,19.21,19.21,0,0,1,1-3.62,19.84,19.84,0,0,1,34.27-4.9Z" fill="#9fda4f"/><path d="M261.71,139.79c0,9.84-6.43,19.6-19.59,19.6a19.83,19.83,0,0,1,0-39.66C255.08,119.73,261.71,129.8,261.71,139.79Z" fill="#9fda4f"/><path d="M320,35.19c0,10.52-8.83,20.05-19.77,20.05-6.3,0-20-4.8-20-19.91A19.87,19.87,0,0,1,320,35.19Z" fill="#9fda4f"/><path d="M259.92,268.71a19.83,19.83,0,1,1-39.66,0h0c0-13.21,11.29-19.83,19.83-19.83C255.8,248.88,259.92,263.37,259.92,268.71Z" fill="#fec228"/><path d="M362.37,350.58c13.21,0,19.59,11.57,19.59,19.71a19.83,19.83,0,1,1-39.66.11C342.3,358.21,352.25,350.58,362.37,350.58Z" fill="#fec228"/><path d="M130.27,265.66a19.83,19.83,0,0,1,19.83,19.83h0a19.84,19.84,0,0,1-19.83,19.83c-8.38,0-19.83-6.46-19.83-19.83A19.83,19.83,0,0,1,130.27,265.66Z" fill="#ff4e47"/><path d="M205.6,375a19.83,19.83,0,1,1-.12,39.66A19.83,19.83,0,1,1,205.6,375Z" fill="#ff4e47"/><path d="M57.89,345c11.82,0,19.51,10,19.51,19.77a19.84,19.84,0,1,1-39.67.07C37.73,352.55,47.77,345,57.89,345Z" fill="#ff4e47"/><path d="M429.75,58.21A19.83,19.83,0,0,1,449.58,78c0,7.17-5.54,19.84-19.86,19.84a19.84,19.84,0,0,1,0-39.67Z" fill="#9fda4f"/><path d="M368.73,232.1c0,12.2-9.94,19.83-20.06,19.83-13.21,0-19.62-11.6-19.62-19.74a19.84,19.84,0,1,1,39.68-.09Z" fill="#fec228"/><path d="M49.34,244.38v22.88c13.41-.52,24-4.77,33.08-13.22.52-.48,1-1,1.53-1.48,9.67-9.72,18-24.89,26.16-47.73L170.73,42.35H141.42L92.57,178,68.28,101.93H41.44l35.64,91.58a36.94,36.94,0,0,1,2,7.22,37.58,37.58,0,0,1-2,20.18C73.45,230.21,67,241.14,49.34,244.38Z" fill="#fff"/></svg>