<?xml version="1.0" encoding="UTF-8" standalone="no"?><!DOCTYPE svg PUBLIC "-//W3C//DTD SVG 1.1//EN" "http://www.w3.org/Graphics/SVG/1.1/DTD/svg11.dtd"><svg width="100%" height="100%" viewBox="0 0 500 500" version="1.1" xmlns="http://www.w3.org/2000/svg" xmlns:xlink="http://www.w3.org/1999/xlink" xml:space="preserve" xmlns:serif="http://www.serif.com/" style="fill-rule:evenodd;clip-rule:evenodd;stroke-linejoin:round;stroke-miterlimit:1.41421;"><g id="Layer-1" serif:id="Layer 1"><path d="M74,1l360,0c0.44,0.39 0.831,1.033 1.329,1.133c29.338,5.84 49.795,22.363 60.574,50.438c1.94,5.051 3.41,10.281 5.097,15.429l0,433l-434,0c-2.361,-0.748 -4.71,-1.536 -7.085,-2.238c-24.667,-7.283 -42.806,-22.078 -52.729,-46.145c-2.369,-5.746 -4.14,-11.738 -6.186,-17.617l0,-361c0.358,-0.278 0.983,-0.513 1.036,-0.84c3.254,-20.172 12.83,-36.788 27.99,-50.364c9.931,-8.892 21.103,-15.385 34.092,-18.673c3.343,-0.846 6.59,-2.072 9.882,-3.123" style="fill:#652a91;fill-rule:nonzero;"/></g><g id="Layer-3" serif:id="Layer 3"><rect x="372.163" y="279" width="21.299" height="198" style="fill:#fff;"/><rect x="338.71" y="279" width="21.299" height="198" style="fill:#fff;"/><rect x="305.257" y="279" width="21.299" height="198" style="fill:#fff;"/><rect x="271.804" y="279" width="21.299" height="198" style="fill:#fff;"/><rect x="238.351" y="279" width="21.299" height="198" style="fill:#fff;"/><rect x="204.897" y="279" width="21.299" height="198" style="fill:#fff;"/><rect x="171.444" y="279" width="21.299" height="198" style="fill:#fff;"/><rect x="137.991" y="279" width="21.299" height="198" style="fill:#fff;"/><rect x="104.538" y="279" width="21.299" height="198" style="fill:#fff;"/><path d="M102.648,258.343l292.198,0l0,-146.458l-74.534,-75.187l-217.665,0l0,221.645Z" style="fill:#fff;fill-rule:nonzero;"/><path d="M308.491,126.75l86.133,-14.386l-75.452,-76.216l-10.681,90.602Z" style="fill:#773ea3;fill-rule:nonzero;"/><g><path d="M264.861,181.321c-2.929,1.78 -6.752,0.847 -8.531,-2.081l-10.613,6.45c1.78,2.928 0.848,6.751 -2.081,8.531l48.79,80.273c2.929,-1.78 6.751,-0.847 8.531,2.081l10.613,-6.45c-1.78,-2.928 -0.848,-6.751 2.081,-8.531l-48.79,-80.273Z" style="fill:#9c75ba;fill-opacity:0.984314;"/><path d="M190.291,82.555c27.738,-16.859 63.945,-8.026 80.803,19.711c16.859,27.738 8.027,63.945 -19.711,80.804c-27.737,16.859 -63.944,8.026 -80.803,-19.711c-16.859,-27.738 -8.027,-63.945 19.711,-80.804Zm5.727,9.423c22.537,-13.698 51.956,-6.522 65.654,16.015c13.698,22.538 6.522,51.956 -16.016,65.654c-22.537,13.698 -51.956,6.522 -65.654,-16.015c-13.698,-22.538 -6.521,-51.956 16.016,-65.654Z" style="fill:#9c75ba;fill-opacity:0.984314;"/></g><path d="M319.288,113.1l76.064,0l-76.064,-76.952l0,76.952Z" style="fill:#fff;fill-rule:nonzero;"/><rect x="40.84" y="212.154" width="416.32" height="82.534" style="fill:#00a99d;"/><path d="M101.286,270.664c-8.81,4.208 -19.363,0.478 -23.572,-8.332c-4.208,-8.81 -0.478,-19.364 8.332,-23.572c8.81,-4.208 19.364,-0.478 23.572,8.332c4.209,8.81 0.478,19.364 -8.332,23.572" style="fill:#d9e021;fill-rule:nonzero;"/></g></svg>